<?xml version="1.0" standalone="no"?><!DOCTYPE svg PUBLIC "-//W3C//DTD SVG 1.1//EN" "http://www.w3.org/Graphics/SVG/1.1/DTD/svg11.dtd"><svg class="icon" width="200px" height="200.00px" viewBox="0 0 1024 1024" version="1.1" xmlns="http://www.w3.org/2000/svg"><path fill="#333333" d="M512 521.671111M532.309333 327.224889c-87.950222 0-159.573333-71.623111-159.573333-159.630222s71.566222-159.573333 159.573333-159.573333 159.573333 71.566222 159.573333 159.573333S620.259556 327.224889 532.309333 327.224889zM532.309333 50.688c-64.455111 0-116.906667 52.451556-116.906667 116.906667s52.451556 116.963556 116.906667 116.963556c64.455111 0 116.906667-52.451556 116.906667-116.963556S596.764444 50.688 532.309333 50.688zM513.080889 410.282667l-42.666667 0c0-64.455111-52.451556-116.963556-116.906667-116.963556-64.455111 0-116.963556 52.451556-116.963556 116.963556l-42.666667 0c0-88.007111 71.623111-159.630222 159.630222-159.630222C441.457778 250.652444 513.080889 322.275556 513.080889 410.282667zM697.856 504.490667l-42.268444-0.113778C559.274667 504.32 510.976 504.263111 510.976 410.282667c0-88.007111 71.566222-159.630222 159.573333-159.630222s159.573333 71.623111 159.573333 159.630222C830.122667 504.490667 765.838222 504.490667 697.856 504.490667zM670.549333 293.319111c-64.455111 0-116.906667 52.451556-116.906667 116.963556 0 48.469333 0 51.370667 101.944889 51.427556l42.268444 0.113778c79.530667 0 89.6-5.802667 89.6-51.541333C787.456 345.827556 735.004444 293.319111 670.549333 293.319111zM379.676444 503.466667 339.342222 503.352889C242.517333 503.239111 193.877333 503.125333 193.877333 408.974222c0-88.007111 71.623111-159.630222 159.630222-159.630222 87.950222 0 159.573333 71.623111 159.573333 159.630222C513.080889 503.466667 448.284444 503.466667 379.676444 503.466667zM353.507556 292.010667c-64.455111 0-116.963556 52.451556-116.963556 116.963556 0 48.64 0 51.541333 102.855111 51.712L379.676444 460.8c80.554667 0 90.680889-5.859556 90.680889-51.825778C470.414222 344.519111 417.962667 292.010667 353.507556 292.010667zM514.161778 1015.978667 198.485333 460.629333l626.744889 1.479111L514.161778 1015.978667zM271.928889 503.466667l242.005333 425.699556 238.478222-424.561778L271.928889 503.466667z" /></svg>