<?xml version="1.0" standalone="no"?><!DOCTYPE svg PUBLIC "-//W3C//DTD SVG 1.1//EN" "http://www.w3.org/Graphics/SVG/1.1/DTD/svg11.dtd"><svg class="icon" width="200px" height="200.00px" viewBox="0 0 1024 1024" version="1.1" xmlns="http://www.w3.org/2000/svg"><path fill="#333333" d="M778.813152 245.841257a12.288293 12.288293 0 0 1-11.760576-8.820432 107.428332 107.428332 0 0 0-31.059981-49.077785 12.288293 12.288293 0 0 1 16.434651-18.319358 132.080307 132.080307 0 0 1 38.221869 60.310643 12.363682 12.363682 0 0 1-8.292713 15.07766 14.399166 14.399166 0 0 1-3.54325 0.829272zM399.00688 274.338035m-20.505618 0a20.505618 20.505618 0 1 0 41.011237 0 20.505618 20.505618 0 1 0-41.011237 0ZM598.861272 249.761448m-20.505618 0a20.505618 20.505618 0 1 0 41.011237 0 20.505618 20.505618 0 1 0-41.011237 0ZM556.191492 357.18978a3.09092 3.09092 0 0 1 0 0.829272c-0.376942 1.432378-0.753883 2.864756-1.206212 4.297133a83.98257 83.98257 0 0 1-15.605379 28.949108c-1.583154 1.884708-3.241697 3.769415-4.975628 5.503346a20.505618 20.505618 0 0 1-12.514458 4.221745 20.053289 20.053289 0 0 1-9.725092-2.487814c-1.884708-1.432378-3.769415-2.940144-5.578734-4.523298a84.057958 84.057958 0 0 1-19.676347-25.104305q-1.356989-2.713979-2.487814-5.427958A7.53883 7.53883 0 0 1 484.34644 361.863855a11.308245 11.308245 0 0 1 5.503346-9.649703l2.035484-0.980048a84.133346 84.133346 0 0 1 34.377066-7.53883 82.927133 82.927133 0 0 1 19.902512 2.412426 32.190805 32.190805 0 0 1 3.618639 0.980048 11.082081 11.082081 0 0 1 6.408005 10.102032zM821.030601 227.295734h-67.849472a2.337037 2.337037 0 0 0-2.337038 2.337037v99.135619a2.337037 2.337037 0 0 0 2.337038 2.337037h67.849472a2.337037 2.337037 0 0 0 2.337038-2.337037V229.632771a2.337037 2.337037 0 0 0-2.337038-2.337037z m-34.754007 25.933576a7.53883 7.53883 0 0 1 0-15.07766 7.53883 7.53883 0 1 1 0 15.07766zM890.990947 840.12725v-1.432378a206.036232 206.036232 0 0 0-93.255331-137.055935 221.113893 221.113893 0 0 0-20.807172-11.383633c0.678495-8.217325 1.130825-16.510038 1.130825-24.878141a298.386904 298.386904 0 0 0-1.960096-33.773959 99.738725 99.738725 0 0 0 72.221994-123.486041c-0.678495-2.261649-1.356989-4.523298-1.960096-6.257229 0-0.527718 0-1.055436-0.527718-1.583154a206.563951 206.563951 0 0 0-106.749837-118.887354c-3.54325-1.658543-7.53883-3.241697-10.931304-4.674075a243.051889 243.051889 0 0 0 3.694027-119.490461A134.794286 134.794286 0 1 0 555.136056 73.72976a245.011985 245.011985 0 0 0-61.215302-7.53883 242.14723 242.14723 0 0 0-141.579233 45.232982 132.984967 132.984967 0 0 0-72.372771-21.108725 134.869674 134.869674 0 0 0-25.028917 267.402311A241.24257 241.24257 0 0 0 290.975442 444.790989 293.486664 293.486664 0 0 0 201.941856 744.459493 99.889502 99.889502 0 0 0 130.021415 840.202638v7.538831a2.563202 2.563202 0 0 0 0 0.753883c0.603106 5.201793 1.507766 10.629751 2.563202 15.98232s0 0 0 0.603106a205.810068 205.810068 0 0 0 134.568121 152.133596c5.880288 2.035484 11.911352 3.769415 17.867028 5.201793h0.829271a101.774209 101.774209 0 0 0 17.942417 1.583155A99.889502 99.889502 0 0 0 401.419306 946.877087a292.958946 292.958946 0 0 0 257.526444-45.232981 209.202541 209.202541 0 0 0 24.42581 37.694151c3.392474 4.070968 6.935724 8.066548 11.006692 12.212905a117.756529 117.756529 0 0 0 199.47745-80.288543v-0.980048a207.619387 207.619387 0 0 0-2.864755-30.155321zM816.054973 510.604977v0.829271c0.603106 1.884708 1.206213 3.769415 1.658543 5.35257a65.361659 65.361659 0 0 1 2.412426 18.017804A67.849473 67.849473 0 0 1 755.744331 603.106425h-6.634171c-1.733931 0-3.467862 0-5.126404-0.45233h-1.80932c-1.733931 0-3.467862-0.603106-5.126404-0.980048h-1.583155a64.607776 64.607776 0 0 1-6.483394-2.035484c-2.563202-0.980048-5.051016-2.110872-7.53883-3.317085-4.070968-1.884708-8.066548-3.99558-11.911352-6.181841l-2.487814-2.110873c-3.467862-2.035484-6.935724-4.221745-10.328197-6.558782l-2.940144-2.035484c-3.09092-2.186261-6.181841-4.523298-9.121985-6.935724l-3.241697-2.713979-7.086501-6.408006c-1.356989-1.281601-2.638591-2.563202-3.920191-3.920191s-4.070968-4.221745-6.031065-6.408006-2.035484-2.186261-2.940143-3.317086c-2.412426-2.864756-4.749463-5.804899-6.935724-8.745043l-2.412426-3.317085c-2.261649-3.241697-4.44791-6.483394-6.483394-9.875868-0.527718-0.829271-0.980048-1.658543-1.432378-2.487814-2.186261-3.769415-4.372522-7.53883-6.257229-11.53441-0.45233-0.829271-0.829271-1.733931-1.206213-2.563202l-2.261649-4.824852q-1.583154-3.769415-2.940144-7.53883c-0.90466-2.563202-1.809319-5.126405-2.63859-7.53883s-1.658543-5.277181-2.337038-7.538831a72.900489 72.900489 0 0 1-1.206213-12.740623 66.944813 66.944813 0 0 1 0-6.784947v-1.960096c0-0.603106 0-3.166309 0.678495-4.749463s0-1.356989 0.527718-2.035484 0.678495-2.940144 1.130825-4.44791l0.678495-1.80932c0.45233-1.507766 0.980048-2.940144 1.583154-4.447909s0.527718-0.980048 0.753883-1.507767 1.356989-3.015532 2.110872-4.447909l0.753884-1.281602c0.829271-1.432378 1.658543-2.940144 2.63859-4.297133l0.753883-1.055436c0.980048-1.432378 2.035484-2.864756 3.166309-4.221745l0.753883-0.90466c1.130825-1.356989 2.337037-2.638591 3.54325-3.920191l0.829271-0.829272 3.995581-3.54325 0.980047-0.829271c1.356989-1.055436 2.713979-2.110872 4.146357-3.090921l1.206213-0.829271c1.356989-0.90466 2.789367-1.733931 4.221745-2.563202l1.583154-0.829272 4.146357-1.960096 2.035484-0.829271 3.920192-1.507766 2.563202-0.753883 3.618639-0.90466 3.015532-0.678494 3.467862-0.527719H697.393784a56.692004 56.692004 0 0 1 7.086501 0.829272 67.321755 67.321755 0 0 1 9.875867 2.412425c3.618639 1.432378 7.53883 2.940144 10.780528 4.598687A174.825475 174.825475 0 0 1 816.054973 510.604977zM595.242634 489.270087v0.980048a203.548418 203.548418 0 0 0 6.332617 19.902512v0.527718c0.678495 1.809319 1.356989 3.54325 2.110872 5.277182-0.603106 0.45233-1.130825 0.980048-1.733931 1.356989l-4.975628 3.54325c-2.412426 1.658543-4.90024 3.241697-7.53883 4.824852l-5.427958 3.166309c-2.487814 1.356989-4.975628 2.713979-7.53883 3.99558s-3.769415 1.884708-5.729511 2.713978-5.201793 2.337037-7.53883 3.392474l-5.880288 2.261649c-2.713979 0.980048-5.503346 1.809319-8.292713 2.638591l-5.880288 1.733931c-2.864756 0.753883-5.804899 1.356989-8.745043 2.035484l-5.729511 1.130825c-3.241697 0.603106-6.558782 0.980048-9.875868 1.356989l-4.90024 0.603106c-4.90024 0.45233-9.951256 0.678495-15.07766 0.678495h-9.649703a171.659166 171.659166 0 0 1-28.496779-3.920192 157.184612 157.184612 0 0 1-21.561054-6.332617c-2.563202-1.055436-5.051016-2.261649-7.538831-3.467862l-0.980048-0.603106c-2.186261-1.130825-4.372522-2.337037-6.408005-3.618639h-0.45233a104.4128 104.4128 0 0 1-34.67862-36.261774A103.05581 103.05581 0 0 1 393.880476 387.722043a167.889751 167.889751 0 0 1 17.867028-20.204065 172.789991 172.789991 0 0 1 120.621285-48.776232h13.117564l6.558783 0.603106 3.769415 0.527718 5.955676 0.829272 3.920192 0.753883 5.729511 1.206212 3.844803 0.980048 5.729511 1.507766 3.618639 1.130825c2.035484 0.603106 3.99558 1.356989 6.031064 2.035484l3.166309 1.130825c2.487814 0.980048 5.051016 1.960096 7.53883 3.09092l1.35699 0.527718 8.745043 4.146357 2.563202 1.432378 5.880288 3.241697 3.166308 1.884707 5.051017 3.241697 3.241697 2.186261 4.674075 3.392474 3.241697 2.412425 4.523298 3.694027 2.940144 2.563203c1.583154 1.281601 3.09092 2.713979 4.523298 4.070968l2.63859 2.487814 5.051017 5.201793 1.809319 1.884707c-2.110872 0.678495-4.146357 1.507766-6.257229 2.412426a97.100134 97.100134 0 0 0-16.510039 8.971208l-0.904659 0.603107a113.082455 113.082455 0 0 0-6.784948 5.051016l-0.603106 0.45233a101.095715 101.095715 0 0 0-18.696299 20.581007l-0.829271 1.206212c-1.432378 2.186261-2.789367 4.372522-4.070969 6.709559l-0.678495 1.281602a95.441592 95.441592 0 0 0-7.161888 16.886979c0 0.678495-0.376942 1.356989-0.603107 2.035485-0.603106 2.186261-1.206213 4.44791-1.733931 6.709559 0 0.980048-0.376942 1.884708-0.603106 2.864755s-0.678495 4.297133-0.980048 6.483394v2.789367c0 3.015532-0.45233 6.181841-0.45233 9.272762a103.131199 103.131199 0 0 0 1.35699 20.053288zM675.229623 31.663087A103.206587 103.206587 0 0 1 723.025807 226.164909c-0.829271-2.186261-1.733931-4.297133-2.63859-6.483394s-1.432378-3.844803-2.261649-5.729511-2.638591-5.955676-4.070969-8.895819l-1.206213-2.563203a242.976501 242.976501 0 0 0-65.964765-82.927133 49.30395 49.30395 0 0 1-0.527718-6.709559 46.740748 46.740748 0 0 1 66.115542-42.519003 12.288293 12.288293 0 0 0 10.252809-22.616491 70.337287 70.337287 0 0 0-29.627603-6.408006 71.392723 71.392723 0 0 0-70.488063 60.762972 247.424411 247.424411 0 0 0-37.015657-18.847075A103.734305 103.734305 0 0 1 675.229623 31.663087zM563.277993 109.31304l5.126405 1.809319 6.709559 2.63859 2.940143 1.281602a213.047345 213.047345 0 0 1 114.439445 120.621285l0.678494 1.658542 2.261649 6.634171 1.583155 5.051016a212.670403 212.670403 0 0 1 0 121.224392A205.357738 205.357738 0 0 0 544.657082 287.4556c-4.070968 0-8.141937-0.376942-12.212905-0.376942A204.980796 204.980796 0 0 0 368.173064 369.402685l-0.452329 0.527718a134.341956 134.341956 0 0 0-23.370374 75.99141 127.707786 127.707786 0 0 0 0.904659 15.077661 207.694775 207.694775 0 0 1-20.128677-22.616491l-1.206212-1.206213a209.881036 209.881036 0 0 1-39.654248-94.989262c-0.678495-4.749463-1.206213-9.498926-1.583154-14.323778v-2.940143c0-4.824851-0.527718-9.649703-0.527718-14.474555v-11.53441-4.372522c0-1.432378 0.376942-4.598686 0.603106-6.860335s0.45233-3.769415 0.753883-5.654123 0.45233-3.54325 0.753883-5.277181l1.130825-6.634171c0.376942-2.186261 0.527718-2.638591 0.829271-3.920192 0.527718-2.563202 1.130825-5.051016 1.733931-7.53883 0-0.753883 0.376942-1.507766 0.603106-2.261649q1.130825-4.523298 2.487814-8.820431A211.765744 211.765744 0 0 1 563.277993 109.31304zM250.6427 324.169703a103.281975 103.281975 0 1 1 75.388303-191.260125c-1.130825 1.130825-2.186261 2.337037-3.392474 3.467862s-3.54325 3.694027-5.352569 5.578735c-3.166309 3.317085-6.332617 6.784947-9.272761 10.328197-1.507766 1.733931-2.940144 3.467862-4.372522 5.277182s-2.864756 3.317085-4.146357 5.051016A64.607776 64.607776 0 0 0 200.358702 196.009588a12.288293 12.288293 0 0 0 8.217325 15.077661 12.212905 12.212905 0 0 0 15.07766-8.141937 39.729636 39.729636 0 0 1 61.743021-20.43023c-2.110872 3.392474-3.99558 6.935724-5.880288 10.403586-1.658543 3.015532-3.166309 6.106453-4.749463 9.197373-0.45233 1.055436-0.980048 2.110872-1.432378 3.09092a249.535283 249.535283 0 0 0-10.855916 27.215178c-0.753883 2.186261-1.432378 4.372522-2.110872 6.63417s-1.356989 4.523298-1.960096 6.784948-1.507766 6.031064-2.186261 9.046596c-0.376942 1.658543-0.829271 3.241697-1.130824 4.824851-0.980048 4.598686-1.733931 9.272761-2.412426 13.946836 0 1.507766-0.376942 3.09092-0.603106 4.674075q-0.678495 5.427958-1.130825 10.855916v4.598686c0 4.975628-0.527718 10.026644-0.527718 15.077661S250.6427 319.42024 250.6427 324.169703z m53.601083 668.091143a68.452579 68.452579 0 0 1-11.835963-1.055436c-4.90024-1.206213-9.800479-2.563202-14.549943-4.221745a174.14698 174.14698 0 0 1-113.836337-128.83861 1.809319 1.809319 0 0 0 0-0.603107q-1.281601-6.408006-2.035485-12.665235v-4.674075a67.849473 67.849473 0 0 1 62.949234-67.849472 39.955801 39.955801 0 0 1 6.031064 0 55.862733 55.862733 0 0 1 8.669655 0.603106 167.588198 167.588198 0 0 1 19.827123 5.880288 174.750087 174.750087 0 0 1 109.991535 125.069195 158.315437 158.315437 0 0 1 2.940143 17.565474 17.037757 17.037757 0 0 1 0 1.960096v1.055436a68.301803 68.301803 0 0 1-68.075637 67.924861z m332.839359-169.623682v2.337037c0 4.372522 0.90466 8.669655 1.507766 12.966788 0 1.281601 0.376942 2.487814 0.603106 3.769416 0.678495 4.070968 1.507766 8.066548 2.412426 12.062128 0 1.356989 0.603106 2.789367 0.980048 4.146357 0.980048 3.99558 2.110872 7.915772 3.317085 11.835963 0 0.45233 0 0.90466 0.376942 1.281601a262.200518 262.200518 0 0 1-243.05189 43.272886l-0.678494-4.523298c0-1.055436 0-2.035484-0.527718-3.015532-0.527718-3.317085-1.206213-6.634171-1.884708-9.951256A204.754631 204.754631 0 0 0 363.725155 818.716972 99.738725 99.738725 0 0 0 324.749402 640.800577a15.077661 15.077661 0 0 0-3.241697 0 64.532387 64.532387 0 0 1-37.091045-11.534411A15.831544 15.831544 0 0 0 266.775797 655.878237a96.572416 96.572416 0 0 0 52.771812 16.811592 67.849473 67.849473 0 0 1 23.144209 122.581381 204.754631 204.754631 0 0 0-72.900489-46.062253 205.659291 205.659291 0 0 0-24.275034-7.086501 3.392474 3.392474 0 0 0-1.206213 0 84.811841 84.811841 0 0 0-9.725091-0.90466h-1.206213a262.12513 262.12513 0 0 1 76.89607-271.247114 255.415571 255.415571 0 0 0 24.501198 24.124257l1.658543 1.432378q5.427958 4.523298 11.08208 8.820431c1.130825 0.753883 2.186261 1.583154 3.241697 2.412426 3.467862 2.487814 7.0865 4.90024 10.705139 7.53883l2.638591 1.733931 0.753883 1.130825c1.432378 2.337037 2.940144 4.523298 4.523298 6.784947 0.45233 0.527718 0.829271 1.130825 1.281601 1.733931 1.658543 2.261649 3.467862 4.523298 5.277182 6.63417l1.130824 1.432378q2.940144 3.392474 6.106453 6.558783a11.98674 11.98674 0 0 0 0.980048 0.980048q3.241697 3.317085 6.784947 6.332617l0.90466 0.753883c2.337037 2.035484 4.824851 3.99558 7.53883 5.804899l0.980048 0.753883c2.487814 1.809319 5.051016 3.467862 7.53883 5.051017l1.281601 0.829271c2.487814 1.583154 5.051016 2.940144 7.538831 4.372522a11.685187 11.685187 0 0 1 1.658542 0.904659c3.166309 1.583154 6.408006 3.09092 9.649703 4.44791a204.905408 204.905408 0 0 0 59.933701 12.43907h11.383634c4.90024 0 9.800479 0 14.625331-0.603106h2.261649q6.860336-0.603106 13.796059-1.583155l2.563203-0.452329c4.598686-0.753883 9.121985-1.658543 13.645282-2.713979l1.960096-0.45233c4.523298-1.130825 8.971208-2.337037 13.419118-3.769415h0.753883c4.523298-1.432378 8.971208-3.09092 13.34373-4.824852l2.261649-0.904659c4.221745-1.733931 8.368102-3.694027 12.514458-5.729511l2.26165-1.130825c4.146357-2.110872 8.292713-4.372522 12.288293-6.784947l1.356989-0.90466c3.99558-2.412426 7.53883-4.90024 11.609799-7.53883l0.753883-0.45233 0.678495 0.980048c2.110872 3.317085 4.221745 6.558782 6.483394 9.800479l3.467862 4.674075c1.356989 1.884708 2.789367 3.694027 4.297133 5.578735s3.769415 4.598686 5.729511 6.860335l5.126405 5.729511c1.507766 1.658543 3.09092 3.241697 4.749463 4.824852s3.015532 3.015532 4.598686 4.447909l6.483394 5.880288 6.483394 5.35257 4.523299 3.467862c2.487814 1.884708 5.051016 3.694027 7.53883 5.503346 1.130825 0.678495 2.186261 1.432378 3.241697 2.18626 3.392474 2.186261 6.860336 4.221745 10.328198 6.25723l2.940143 1.507766c3.920192 2.110872 7.53883 4.146357 11.835964 6.031064s6.408006 2.864756 9.649703 4.146357H718.050179q3.54325 1.281601 7.538831 2.261649l2.412425 0.603106c1.809319 0.45233 3.54325 0.90466 5.427958 1.206213l2.638591 0.527718 5.729511 0.753883h2.940144a268.306971 268.306971 0 0 1 1.884707 31.059981c0 5.880288 0 11.760575-0.603106 17.640863h-6.483394a99.889502 99.889502 0 0 0-94.386156 67.246366v0.678495c-1.432378 4.975628-2.713979 10.177421-3.844803 15.529991a205.659291 205.659291 0 0 0-4.297134 41.991284c-0.376942 5.277181-0.150777 10.102033 0.150777 14.926884z m139.242196 129.818658a85.414947 85.414947 0 0 1-59.481372-23.822704c-3.166309-3.241697-6.181841-6.634171-8.971208-10.026644a174.750087 174.750087 0 0 1-29.099885-51.264046v-0.829272c-1.583154-4.523298-3.015532-9.046596-4.221745-13.569894v-0.527718c-1.206213-4.674075-2.261649-9.34815-3.09092-14.097613-0.829271-4.824851-1.507766-9.649703-1.884708-14.474554a1.130825 1.130825 0 0 1 0-0.527718c0-4.824851-0.603106-9.725091-0.603106-14.625331a174.071592 174.071592 0 0 1 3.618639-35.507891q1.356989-6.709559 3.166308-12.665235a67.849473 67.849473 0 0 1 64.306223-45.232982 65.7386 65.7386 0 0 1 7.53883 0.45233h1.658543A67.321755 67.321755 0 0 1 755.744331 716.18888a62.572292 62.572292 0 0 1 7.53883 2.186261A174.373145 174.373145 0 0 1 859.629413 844.348995v0.45233a179.348773 179.348773 0 0 1 2.63859 25.255082 85.641112 85.641112 0 0 1-85.867277 82.550191z" /></svg>